<svg width="300" height="300" viewBox="0 0 300 300" fill="none" xmlns="http://www.w3.org/2000/svg">
<rect width="300" height="300" fill="#4E668D"/>
<path d="M68.4136 104.555L70.4486 112.475L69.4586 112.64C68.3036 110.66 66.9286 108.955 65.3336 107.91C62.9136 106.37 58.8986 105.985 57.7436 106.48C56.7536 106.975 56.8636 108.79 56.8636 111.21V136.565C56.8636 139.755 56.6436 141.68 59.1186 142.23V143H49.2736V142.23C51.6936 141.68 51.4736 139.7 51.4736 136.675V111.21C51.4736 108.79 51.5836 106.975 50.5936 106.48C49.4936 105.985 45.4786 106.37 43.0036 107.91C41.4086 108.955 40.0886 110.66 38.9336 112.64L37.8886 112.475L39.9786 104.555H68.4136ZM78.9199 102.685H79.7999V120.23L81.1199 119.35C84.7499 116.985 88.7649 114.235 91.4599 115.83C93.5499 117.04 93.5499 119.625 93.5499 121.935V137.995C93.5499 139.37 93.5499 141.68 95.1999 142.23V143H86.8949V142.23C88.2149 141.735 88.4899 140.195 88.4899 138.05V121.935C88.4899 120.45 88.2699 119.625 87.4449 119.24C85.5749 118.305 83.0999 119.79 79.7999 121.715V137.665C79.7999 140.415 79.9649 141.515 81.3949 142.285V143H73.0899V142.23C74.5749 141.57 74.6849 140.195 74.6849 137.555V111.32C74.6849 109.45 74.7949 108.24 72.7599 107.14V106.48C75.2899 105.6 76.6099 104.775 78.9199 102.685ZM118.848 128.26H102.953C103.008 130.515 103.558 136.785 107.408 139.535C109.388 140.965 111.973 141.35 114.118 140.69C115.713 140.14 117.253 139.04 118.848 137.39L119.508 137.94C116.538 142.23 112.578 144.1 109.058 143.99C106.033 143.88 102.183 142.12 100.038 138.545C97.3428 134.035 97.6728 125.785 99.7078 121.55C101.358 118.085 104.108 115.94 107.463 115.445C109.938 115.06 113.403 115.665 115.878 118.525C117.968 120.89 118.848 125.18 118.848 128.26ZM111.973 126.445C112.688 126.445 113.458 126.5 113.953 125.895C114.448 125.345 114.668 123.75 114.008 121.22C113.458 119.185 112.358 117.59 110.323 116.82C109.058 116.38 107.408 116.49 106.033 117.425C103.173 119.405 102.898 124.575 102.898 126.445H111.973Z" fill="white"/>
<path d="M88.5532 172.675V184.94C88.5532 186.7 88.4982 188.735 90.7532 189.23V190H80.9632V189.23C83.0532 188.735 83.1632 187.195 83.1632 184.94V156.285C83.1632 154.085 82.8882 152.82 80.9632 152.325V151.555C80.9632 151.555 87.0682 151.335 91.4682 151.17C98.8932 150.895 105.933 150.895 109.728 157.88C111.323 160.74 111.433 164.48 109.453 167.56C105.328 173.72 95.0432 173.225 90.4232 172.84L88.5532 172.675ZM101.753 169.485C105.053 166.955 105.383 163.215 105.218 160.74C104.943 157.99 103.843 155.405 100.763 153.81C97.8482 152.325 92.2382 152.05 90.2582 153.26C88.2782 154.36 88.5532 157.22 88.5532 159.255V171.025C91.7982 171.685 98.5632 171.905 101.753 169.485ZM132.405 187.855L132.955 188.295C131.36 190.55 129.6 191.265 127.51 190.88C126.355 190.66 125.42 190.055 124.98 188.625C124.87 188.24 124.815 187.855 124.705 186.92C121.13 189.67 116.84 192.145 113.32 190.385C111.065 189.175 110.24 187.085 110.24 184.995C110.295 179.275 113.54 177.955 119.37 175.205L124.65 172.73V170.365C124.65 167.835 124.815 164.865 123.385 163.93C122.395 163.27 121.075 163.215 119.975 163.71C117.885 164.645 118.215 165.91 117.17 168.66C116.73 169.705 115.905 170.31 114.915 170.42C114.145 170.585 113.21 170.42 112.605 169.705C112.11 169.1 111.945 168.11 112.22 167.01C112.88 164.865 115.41 163.435 117.17 162.885C119.26 162.225 124.925 161.785 127.62 163.93C129.985 165.8 129.71 168.935 129.71 171.355V186.205C129.71 187.525 129.71 188.185 130.425 188.625C131.14 189.01 131.745 188.625 132.405 187.855ZM116.73 179C115.245 180.705 114.915 183.18 115.41 185.27C115.795 186.645 116.675 187.69 117.94 188.02C119.755 188.625 121.955 187.58 124.65 185.27V174.435C122.12 175.205 118.27 177.24 116.73 179ZM141.211 161.95H142.091V180.98C142.091 184.005 141.871 186.15 143.411 186.865C145.501 187.855 148.086 186.205 150.836 184.555V172.29C150.836 168.66 151.111 167.615 148.911 166.35V165.69C151.551 164.755 152.596 164.15 155.071 161.95H155.896V183.51C155.896 186.15 156.281 188.46 158.096 189.23V190L150.836 190.44V186.095C149.131 187.36 142.641 192.365 139.396 190.605C136.701 189.23 136.976 185.655 136.976 183.015V169.815C136.976 168.165 136.701 167.285 135.051 166.35V165.69C137.471 164.92 139.176 163.82 141.211 161.95ZM178.223 165.47L176.463 170.035L175.858 169.87C175.033 167.175 174.263 164.59 171.183 163.765C170.028 163.435 167.718 163.38 166.453 164.535C165.298 165.525 164.803 167.01 164.968 168.22C165.353 170.86 168.158 172.07 170.743 173.28L172.558 174.16C176.793 176.25 179.323 178.065 179.543 182.19C179.708 184.445 178.608 187.635 175.583 189.56C173.108 191.1 170.523 191.265 167.663 190.66C165.023 190.165 162.768 188.845 160.403 187.195L162.328 181.86L162.988 181.97C163.758 185.105 165.518 188.24 168.818 189.34C170.468 189.835 172.558 189.835 174.043 188.57C175.363 187.415 175.803 185.82 175.638 184.39C175.308 181.695 173.218 180.485 169.808 178.67L168.598 178.065C164.143 175.755 161.943 174.49 161.613 170.42C161.393 167.945 162.383 165.36 165.353 163.545C168.323 161.73 172.558 162.06 176.078 163.985C177.013 164.535 177.453 164.81 178.223 165.47ZM203.268 175.26H187.373C187.428 177.515 187.978 183.785 191.828 186.535C193.808 187.965 196.393 188.35 198.538 187.69C200.133 187.14 201.673 186.04 203.268 184.39L203.928 184.94C200.958 189.23 196.998 191.1 193.478 190.99C190.453 190.88 186.603 189.12 184.458 185.545C181.763 181.035 182.093 172.785 184.128 168.55C185.778 165.085 188.528 162.94 191.883 162.445C194.358 162.06 197.823 162.665 200.298 165.525C202.388 167.89 203.268 172.18 203.268 175.26ZM196.393 173.445C197.108 173.445 197.878 173.5 198.373 172.895C198.868 172.345 199.088 170.75 198.428 168.22C197.878 166.185 196.778 164.59 194.743 163.82C193.478 163.38 191.828 163.49 190.453 164.425C187.593 166.405 187.318 171.575 187.318 173.445H196.393Z" fill="white"/>
<ellipse cx="187.5" cy="106.5" rx="3.40909" ry="3.47206" fill="#FFB84C"/>
<path d="M150.774 122.705C154.734 123.585 159.189 124.96 161.169 130.075C162.049 132.33 161.829 135.96 160.344 138.105C156.824 143.11 148.574 143 145.054 143H131.579V142.23C133.999 141.735 133.779 139.425 133.779 137.39V109.89C133.779 107.8 133.944 105.875 131.579 105.325V104.555H142.964C148.244 104.555 156.219 105.105 159.409 110.825C160.564 112.915 160.619 115.665 159.409 117.645C157.429 121.11 153.469 122.21 150.774 122.705ZM142.414 121.935C144.889 121.935 150.884 122.155 153.689 118.745C155.339 116.765 155.339 113.08 154.679 111.1C153.854 108.625 151.929 107.195 149.674 106.48C147.529 105.765 142.084 105.655 140.489 106.645C139.004 107.58 139.169 109.56 139.169 112.255V121.935H142.414ZM139.169 135.795C139.169 138.875 139.059 140.36 140.049 141.075C141.644 142.285 149.179 141.405 150.774 140.91C153.524 140.085 154.899 138.655 155.724 136.18C156.494 133.815 156.439 129.415 154.679 127.05C151.654 122.87 145.439 123.255 142.194 123.255H139.169V135.795ZM170.827 114.95H171.707V119.9C173.357 117.865 176.217 114.95 178.637 114.95C179.627 114.95 180.562 115.115 181.167 116.105C181.662 116.985 181.387 118.58 180.837 119.35C180.287 120.175 179.462 120.45 178.362 120.395C176.437 120.285 174.842 119.13 173.027 120.615C171.542 121.88 171.707 123.42 171.707 126.555V137.72C171.707 140.635 172.037 141.735 173.302 142.23V143H164.997V142.23C166.152 141.735 166.592 140.855 166.592 137.665V123.86C166.592 121.935 166.812 120.505 164.667 119.35V118.69C167.142 117.92 168.957 116.71 170.827 114.95ZM186.448 103.675C187.218 103.4 188.428 103.29 189.308 103.895C190.353 104.665 190.793 105.655 190.738 106.81C190.738 107.8 190.408 108.955 189.198 109.67C188.428 110.11 187.383 110.275 186.393 109.89C185.403 109.505 184.578 108.57 184.358 107.415C184.083 105.985 184.633 104.28 186.448 103.675ZM189.968 137.5C189.968 140.58 190.243 141.68 191.563 142.23V143H183.258V142.23C184.578 141.68 184.853 140.58 184.853 137.5V123.86C184.853 121.88 185.018 120.505 182.928 119.35V118.69C185.458 117.81 186.778 117.04 189.088 114.95H189.968V137.5ZM214.773 118.69C216.973 116.545 218.843 115.06 220.823 115.555C221.648 115.775 222.308 116.27 222.528 117.26C222.693 117.92 222.528 118.8 221.867 119.35C221.208 119.955 220.218 120.23 219.118 119.79C218.348 119.46 217.798 118.91 217.303 118.855C216.918 118.8 216.313 119.24 215.598 119.845C217.578 123.255 217.523 127.05 215.378 130.185C212.738 134.09 208.173 135.19 204.983 134.915C203.388 134.86 202.838 134.585 202.123 134.365C201.573 134.64 200.803 134.97 200.033 135.74C199.428 136.4 199.043 137.28 199.318 137.995C199.703 139.205 201.848 139.645 204.653 140.25L211.198 141.68C214.773 142.45 218.293 143.11 219.503 146.3C220.163 148.115 220.218 150.81 218.953 152.625C216.368 156.42 209.878 156.97 207.238 156.97C204.873 156.97 197.558 156.42 195.303 153.23C194.478 152.02 194.368 150.425 194.863 149.105C195.688 146.96 198.108 145.475 200.253 144.21C198.548 143.715 195.963 142.945 195.578 140.14C195.358 138.27 196.568 136.565 198.768 135.025C199.263 134.695 199.813 134.31 201.078 133.705C197.668 131.23 196.458 128.7 196.513 125.455C196.513 122.87 197.943 119.35 200.748 117.315C203.663 115.17 207.073 114.95 210.043 115.885C211.748 116.38 213.068 117.04 214.773 118.69ZM201.463 128.81C201.738 130.515 202.673 132.33 204.488 133.1C205.973 133.815 208.063 133.705 209.328 132.77C211.968 130.955 212.023 124.905 211.968 124.135C211.913 122.375 211.748 118.635 209.218 117.095C207.843 116.27 205.973 116.215 204.708 116.82C200.803 118.745 200.968 126.335 201.463 128.81ZM199.593 146.465C198.493 148.005 198.108 150.205 198.822 151.8C199.923 154.33 202.673 155.375 204.818 155.595C207.513 155.98 212.628 156.035 215.103 153.01C215.928 152.02 216.258 150.48 215.928 149.435C215.048 146.85 210.758 146.08 208.668 145.75L206.138 145.31C205.423 145.2 202.508 144.705 201.518 144.54C200.913 144.925 200.143 145.695 199.593 146.465ZM231.251 102.685H232.131V120.23L233.451 119.35C237.081 116.985 241.096 114.235 243.791 115.83C245.881 117.04 245.881 119.625 245.881 121.935V137.995C245.881 139.37 245.881 141.68 247.531 142.23V143H239.226V142.23C240.546 141.735 240.821 140.195 240.821 138.05V121.935C240.821 120.45 240.601 119.625 239.776 119.24C237.906 118.305 235.431 119.79 232.131 121.715V137.665C232.131 140.415 232.296 141.515 233.726 142.285V143H225.421V142.23C226.906 141.57 227.016 140.195 227.016 137.555V111.32C227.016 109.45 227.126 108.24 225.091 107.14V106.48C227.621 105.6 228.941 104.775 231.251 102.685ZM255.571 104.83H256.946V116.325H261.566V118.36H256.946V135.85C256.946 137.94 256.781 140.03 257.826 140.58C258.651 140.965 259.641 140.745 260.906 139.975L261.566 140.47C260.301 142.56 258.541 143.715 256.726 143.935C255.516 144.1 254.086 143.825 253.206 143C251.776 141.735 251.831 139.755 251.831 137.39V118.25H248.696V116.71C253.261 113.63 254.966 108.68 255.571 104.83Z" fill="#FFEB00"/>
<ellipse cx="187.5" cy="106.5" rx="3.40909" ry="3.47206" fill="#FFB84C"/>
<line x1="191.591" y1="106" x2="195" y2="106" stroke="#FFB84C"/>
<line x1="187.048" y1="102.472" x2="187.048" y2="99" stroke="#FFB84C"/>
<path d="M190.724 103.907L193.135 101.451" stroke="#FFB84C" stroke-linecap="round"/>
<line y1="-0.5" x2="3.44072" y2="-0.5" transform="matrix(-0.700606 -0.713548 0.700606 -0.713548 193.183 111.455)" stroke="#FFB84C"/>
<line y1="-0.5" x2="3.44072" y2="-0.5" transform="matrix(-0.700606 -0.713548 0.700606 -0.713548 184.592 103.539)" stroke="#FFB84C"/>
<line y1="-0.5" x2="3.44072" y2="-0.5" transform="matrix(0.700606 -0.713548 0.700606 0.713548 182.182 111.872)" stroke="#FFB84C"/>
<line x1="187" y1="114" x2="187" y2="110.528" stroke="#FFB84C"/>
<line x1="180" y1="106" x2="183.409" y2="106" stroke="#FFB84C"/>
</svg>
